<?xml version="1.0" encoding="UTF-8" standalone="no"?>
<svg
   version="1.1"
   x="0px"
   y="0px"
   viewBox="0 0 973.64142 997.45227"
   xml:space="preserve"
   id="svg371"
   sodipodi:docname="argent.svg"
   width="973.64142"
   height="997.45227"
   inkscape:export-filename="C:\Users\antoi\OneDrive\Images\Documents\perso\application\img\argent.png"
   inkscape:export-xdpi="96"
   inkscape:export-ydpi="96"
   inkscape:version="1.1 (c68e22c387, 2021-05-23)"
   xmlns:inkscape="http://www.inkscape.org/namespaces/inkscape"
   xmlns:sodipodi="http://sodipodi.sourceforge.net/DTD/sodipodi-0.dtd"
   xmlns="http://www.w3.org/2000/svg"
   xmlns:svg="http://www.w3.org/2000/svg"><defs
     id="defs375" /><sodipodi:namedview
     id="namedview373"
     pagecolor="#505050"
     bordercolor="#eeeeee"
     borderopacity="1"
     inkscape:pageshadow="0"
     inkscape:pageopacity="0"
     inkscape:pagecheckerboard="0"
     showgrid="false"
     fit-margin-top="0"
     fit-margin-left="0"
     fit-margin-right="0"
     fit-margin-bottom="0"
     inkscape:zoom="0.6546875"
     inkscape:cx="-80.954654"
     inkscape:cy="593.41289"
     inkscape:window-width="1920"
     inkscape:window-height="1001"
     inkscape:window-x="-9"
     inkscape:window-y="-9"
     inkscape:window-maximized="1"
     inkscape:current-layer="svg371" /><g
     id="g365"
     transform="translate(-0.05859375,-47.6)"><path
       d="M 862,976.4 H 125.3 c -41.3,0 -75,-33.6 -75,-75 V 248.1 h 50 c 0,13.8 11.2,25 25,25 H 862 c 26.7,0 48.4,21.7 48.4,48.4 V 540.6 H 724.5 c -46.4,0 -84.2,37.8 -84.2,84.2 v 0 c 0,46.4 37.8,84.2 84.2,84.2 h 185.8 v 219 c 0,26.7 -21.7,48.4 -48.3,48.4 z M 100.3,318.8 v 582.6 c 0,13.8 11.2,25 25,25 h 735 V 758.9 H 724.5 c -74,0 -134.2,-60.2 -134.2,-134.2 v 0 c 0,-74 60.2,-134.2 134.2,-134.2 H 860.3 V 323 h -735 c -8.7,0 -17.2,-1.5 -25,-4.2 z"
       id="path349" /><path
       d="m 923.7,480.9 c 0,3.5 -1.7,5.8 -2.8,6.8 -1.1,1 -3.4,2.8 -6.8,2.8 H 724.5 c -74,0 -134.2,60.2 -134.2,134.2 0,74 60.2,134.2 134.2,134.2 h 189.6 c 32.8,0 59.6,-26.7 59.6,-59.7 V 480.9 Z m 0,218.4 c 0,5.3 -4.3,9.6 -9.6,9.6 H 724.5 c -45,0 -81.8,-35.5 -84.1,-79.9 -0.1,-1.4 -0.1,-2.9 -0.1,-4.3 0,-1.4 0,-2.8 0.1,-4.2 2.2,-44.4 39.1,-80 84.1,-80 v 0.1 h 189.7 c 3.2,0 6.4,-0.3 9.5,-0.8 z"
       id="path351" /><path
       d="M 914.1,540.5 H 860.3 V 421.4 h 53.8 c 32.8,0 59.5,26.7 59.5,59.6 0,15.9 -6.2,30.9 -17.4,42.1 -11.2,11.2 -26.2,17.4 -42.1,17.4 z m -3.8,-50 h 3.8 c 3.4,0 5.7,-1.8 6.8,-2.8 1.1,-1 2.8,-3.3 2.8,-6.8 0,-5.3 -4.3,-9.6 -9.5,-9.6 h -3.8 z"
       id="path353" /><path
       d="m 160.1,323 h -34.8 c -41.3,0 -75,-33.6 -75,-75 0,-20 7.8,-38.9 22,-53 14.2,-14.2 33,-22 53,-22 h 368.1 z m -34.8,-99.9 c -6.7,0 -12.9,2.6 -17.7,7.3 -4.7,4.7 -7.3,11 -7.3,17.7 0,13.8 11.2,25 25,25 h 24.1 l 111,-49.9 H 125.3 Z"
       id="path355" /><path
       d="M 810.3,323 H 719.7 L 652.2,173.1 H 762 c 26.7,0 48.4,21.7 48.4,48.4 V 323 Z M 752,273 h 8.3 v -49.9 h -30.8 z"
       id="path357" /><path
       d="m 759.3,624.7 c 0,19.3 -15.8,35.1 -35.1,35.1 -19.4,0 -35.1,-15.8 -35.1,-35.1 0,-19.3 15.8,-35.1 35.1,-35.1 19.4,0 35.1,15.8 35.1,35.1 z"
       id="path359" /><polygon
       points="165,320.8 144.5,275.2 650.6,47.6 758.7,287.8 713.1,308.3 668.1,208.4 625.5,113.7 "
       id="polygon361" /><rect
       x="205.10001"
       y="458"
       width="50"
       height="333.29999"
       id="rect363" /></g><text
     x="-0.05859375"
     y="991.40002"
     fill="#000000"
     font-size="5px"
     font-weight="bold"
     font-family="'Helvetica Neue', Helvetica, Arial-Unicode, Arial, Sans-serif"
     id="text367">Created by IconPai</text><text
     x="-0.05859375"
     y="996.40002"
     fill="#000000"
     font-size="5px"
     font-weight="bold"
     font-family="'Helvetica Neue', Helvetica, Arial-Unicode, Arial, Sans-serif"
     id="text369">from the Noun Project</text></svg>
