<svg xmlns="http://www.w3.org/2000/svg" data-name="Layer 3" viewBox="0 0 64 80" x="0px" y="0px"><path d="M62.948,61.683,60,52.836V43a.991.991,0,0,0-.051-.316l-3-9a1,1,0,0,0-.5-.579l-12-6A1,1,0,0,0,44,27H40V4a3,3,0,0,0-3-3H13a3,3,0,0,0-3,3V38a3,3,0,0,0,3,3H32.185A2.954,2.954,0,0,0,32,42a3,3,0,0,0,3,3h6.2l1.883,4.4a1.015,1.015,0,0,0,.364.438L46.092,51.6l1.924,10.583A1,1,0,0,0,49,63H62a1,1,0,0,0,.949-1.315ZM13,39a1,1,0,0,1-1-1V4a1,1,0,0,1,1-1H37a1,1,0,0,1,1,1V31h-.48l-.26-.228a3.077,3.077,0,0,0-1.26-.65V6a1,1,0,0,0-1-1H15a1,1,0,0,0-1,1V36a1,1,0,0,0,1,1H34.583l2,2Zm19.643-4H16V7H34V30.216A3.1,3.1,0,0,0,32.642,35ZM35,43a1,1,0,0,1,0-2h3.588l1.57,1.57L40.34,43ZM49.834,61,47.983,50.819a1,1,0,0,0-.428-.653L44.8,48.331,41.919,41.6a1.013,1.013,0,0,0-.212-.313l-7.379-7.378A1.111,1.111,0,0,1,34,33.12,1.142,1.142,0,0,1,35.2,32a1.118,1.118,0,0,1,.738.277l7.4,6.475a1,1,0,0,0,1.173.105L49.276,36H51V34H49a1,1,0,0,0-.514.142l-1.261.757-4.6-3.68A1,1,0,0,0,42,31H40V29h3.766l11.418,5.709L58,43.161V53a.992.992,0,0,0,.052.316L60.612,61ZM39.8,33h1.844l3.747,3-1.286.772Z"/><path d="M25.866,13.5a1.041,1.041,0,0,0-1.737,0l-4,7a1,1,0,0,0,0,.992l4,7a1,1,0,0,0,1.737,0l4-7a1,1,0,0,0,0-.993ZM25,25.983,22.15,21,25,16.014,27.847,21Z"/><path d="M13,50l0,1,2,0,0-1a3,3,0,0,0-3-3V46H10v1h0a3,3,0,0,0-3,3v1a3,3,0,0,0,3,3h0v3a1,1,0,0,1-1-1V55L7,55v1a3,3,0,0,0,3,3v1h2V59h0a3,3,0,0,0,3-3V55a3,3,0,0,0-3-3V49A1,1,0,0,1,13,50Zm-3,2h0a1,1,0,0,1-1-1V50a1,1,0,0,1,1-1h0Zm3,3v1a1,1,0,0,1-1,1h0V54A1,1,0,0,1,13,55Z"/><path d="M27,50l0,1,2,0,0-1a3,3,0,0,0-3-3V46H24v1h0a3,3,0,0,0-3,3v1a3,3,0,0,0,3,3h0v3a1,1,0,0,1-1-1V55l-2,0v1a3,3,0,0,0,3,3v1h2V59h0a3,3,0,0,0,3-3V55a3,3,0,0,0-3-3V49A1,1,0,0,1,27,50Zm-3,2h0a1,1,0,0,1-1-1V50a1,1,0,0,1,1-1h0Zm3,3v1a1,1,0,0,1-1,1h0V54A1,1,0,0,1,27,55Z"/><path d="M25,43a9.955,9.955,0,0,0-7.007,2.865,10,10,0,1,0,0,14.27A10,10,0,1,0,25,43ZM11,61a8,8,0,1,1,8-8A8.008,8.008,0,0,1,11,61Zm14,0a7.963,7.963,0,0,1-5.714-2.408,9.981,9.981,0,0,0,0-11.182A8,8,0,1,1,25,61Z"/><rect x="17.999" y="8.999" width="1.999" height="1.999"/><rect x="17.999" y="30.999" width="1.999" height="1.999"/><rect x="29.999" y="30.999" width="1.999" height="1.999"/><rect x="30" y="8.999" width="1.999" height="1.999"/><path d="M48,15h3V26a1,1,0,0,0,1,1h6a1,1,0,0,0,1-1V15h3a1,1,0,0,0,.753-1.659l-7-8a1.034,1.034,0,0,0-1.505,0l-7,8A1,1,0,0,0,48,15Zm7-7.481L59.8,13H58a1,1,0,0,0-1,1V25H53V14a1,1,0,0,0-1-1H50.2Z"/><text x="0" y="79" fill="#000000" font-size="5px" font-weight="bold" font-family="'Helvetica Neue', Helvetica, Arial-Unicode, Arial, Sans-serif">Created by nareerat jaikaew</text><text x="0" y="84" fill="#000000" font-size="5px" font-weight="bold" font-family="'Helvetica Neue', Helvetica, Arial-Unicode, Arial, Sans-serif">from the Noun Project</text></svg>