<?xml version="1.0" encoding="UTF-8" standalone="no"?>
<svg
   data-name="Layer 1"
   viewBox="0 0 32 45.000019"
   x="0px"
   y="0px"
   version="1.1"
   id="svg43"
   sodipodi:docname="profil.svg"
   inkscape:export-filename="C:\Users\antoi\OneDrive\Images\Documents\perso\application\img\profil.png"
   inkscape:export-xdpi="96"
   inkscape:export-ydpi="96"
   width="32"
   height="45.000019"
   inkscape:version="1.1 (c68e22c387, 2021-05-23)"
   xmlns:inkscape="http://www.inkscape.org/namespaces/inkscape"
   xmlns:sodipodi="http://sodipodi.sourceforge.net/DTD/sodipodi-0.dtd"
   xmlns="http://www.w3.org/2000/svg"
   xmlns:svg="http://www.w3.org/2000/svg"
   xmlns:rdf="http://www.w3.org/1999/02/22-rdf-syntax-ns#"
   xmlns:cc="http://creativecommons.org/ns#"
   xmlns:dc="http://purl.org/dc/elements/1.1/">
  <defs
     id="defs47" />
  <sodipodi:namedview
     id="namedview45"
     pagecolor="#505050"
     bordercolor="#eeeeee"
     borderopacity="1"
     inkscape:pageshadow="0"
     inkscape:pageopacity="0"
     inkscape:pagecheckerboard="0"
     showgrid="false"
     inkscape:zoom="6.525"
     inkscape:cx="-71.494253"
     inkscape:cy="48.199234"
     inkscape:window-width="1920"
     inkscape:window-height="1001"
     inkscape:window-x="-9"
     inkscape:window-y="-9"
     inkscape:window-maximized="1"
     inkscape:current-layer="svg43"
     fit-margin-top="0"
     fit-margin-left="0"
     fit-margin-right="0"
     fit-margin-bottom="0" />
  <title
     id="title29">18. Note</title>
  <path
     d="M 27.1,45.00001 H 0 V 1.0245837e-5 H 27.1 A 4.89,4.89 0 0 1 32,4.8800102 V 40.12001 a 4.89,4.89 0 0 1 -4.9,4.88 z m -25.1,-2 h 25.1 a 2.88,2.88 0 0 0 2.9,-2.88 V 4.8800102 a 2.88,2.88 0 0 0 -2.9,-2.88 H 2 Z"
     id="path31" />
  <rect
     x="4.6000004"
     y="1.0000103"
     width="2"
     height="43"
     id="rect33" />
  <path
     d="m 24.8,31.59001 h -13 v -5.41 a 4,4 0 0 1 4,-4 h 5 a 4,4 0 0 1 4,4 z m -11,-2 h 9 v -3.41 a 2,2 0 0 0 -2,-2 h -5 a 2,2 0 0 0 -2,2 z"
     id="path35" />
  <path
     d="m 18.29,21.05001 a 3.82,3.82 0 1 1 3.82,-3.81 3.82,3.82 0 0 1 -3.82,3.81 z m 0,-5.63 a 1.82,1.82 0 1 0 1.82,1.82 1.83,1.83 0 0 0 -1.82,-1.82 z"
     id="path37" />
  <metadata
     id="metadata239">
    <rdf:RDF>
      <cc:Work
         rdf:about="">
        <dc:title>18. Note</dc:title>
      </cc:Work>
    </rdf:RDF>
  </metadata>
</svg>
